<?xml version="1.0" encoding="utf-8"?>
<!-- Generator: Adobe Illustrator 24.0.1, SVG Export Plug-In . SVG Version: 6.00 Build 0)  -->
<svg version="1.1" id="Layer_1" xmlns="http://www.w3.org/2000/svg" xmlns:xlink="http://www.w3.org/1999/xlink" x="0px" y="0px"
	 viewBox="0 0 72 72" style="enable-background:new 0 0 72 72;" xml:space="preserve">
<style type="text/css">
	.st0{fill-rule:evenodd;clip-rule:evenodd;fill:#FFFFFF;}
</style>
<path class="st0" d="M58.9,51.2V44c3.9-2.3,6.5-6.5,6.5-11.3c0-7.2-5.9-13.1-13.1-13.1c-2.6,0-5.1,0.8-7,2.1
	C43.2,13,35.5,6.5,26.2,6.5c-10.8,0-19.6,8.8-19.6,19.6c0,5.7,2.6,11,6.5,14.6v8C5.2,44.3,0,35.8,0,26.2C0,11.8,11.8,0,26.2,0
	C36,0,44.5,5.4,49.1,13.4c1-0.2,2.1-0.3,3.3-0.3c10.8,0,19.6,8.8,19.6,19.6C72,41.2,66.6,48.6,58.9,51.2z M22.9,32.7
	c1.8,0,3.3,1.5,3.3,3.3v26.2c0,1.8-1.5,3.3-3.3,3.3s-3.3-1.5-3.3-3.3V36C19.6,34.2,21.1,32.7,22.9,32.7z M36,39.3
	c1.8,0,3.3,1.5,3.3,3.3v26.2c0,1.8-1.5,3.3-3.3,3.3s-3.3-1.5-3.3-3.3V42.5C32.7,40.7,34.2,39.3,36,39.3z M49.1,32.7
	c1.8,0,3.3,1.5,3.3,3.3v26.2c0,1.8-1.5,3.3-3.3,3.3s-3.3-1.5-3.3-3.3V36C45.8,34.2,47.3,32.7,49.1,32.7z"/>
</svg>
