<?xml version="1.0" encoding="utf-8"?>
<!-- Generator: Adobe Illustrator 24.0.1, SVG Export Plug-In . SVG Version: 6.00 Build 0)  -->
<svg version="1.1" id="Layer_1" xmlns="http://www.w3.org/2000/svg" xmlns:xlink="http://www.w3.org/1999/xlink" x="0px" y="0px"
	 viewBox="0 0 72 72" style="enable-background:new 0 0 72 72;" xml:space="preserve">
<style type="text/css">
	.st0{fill-rule:evenodd;clip-rule:evenodd;fill:#212121;}
</style>
<path class="st0" d="M68.7,55.6H3.3c-1.8,0-3.3-1.5-3.3-3.3S1.5,49,3.3,49h65.5c1.8,0,3.3,1.5,3.3,3.3S70.5,55.6,68.7,55.6z
	 M68.7,42.5H3.3C1.5,42.5,0,41,0,39.2C0,37.5,1.5,36,3.3,36h65.5c1.8,0,3.3,1.5,3.3,3.3C72,41.1,70.5,42.5,68.7,42.5z M52.4,22.9
	c-2.6,0-5.1,0.8-7,2.1c-2.1-8.7-9.8-15.2-19.1-15.2c-10.8,0-19.6,8.8-19.6,19.6H0C0,15.1,11.8,3.3,26.2,3.3
	c9.8,0,18.3,5.4,22.9,13.4c1-0.2,2.1-0.3,3.3-0.3c8.5,0,15.9,5.4,18.5,13.1h-7.2C61.4,25.5,57.3,22.9,52.4,22.9z M3.3,62.2h65.5
	c1.8,0,3.3,1.5,3.3,3.3c0,1.8-1.5,3.3-3.3,3.3H3.3c-1.8,0-3.3-1.5-3.3-3.3S1.5,62.2,3.3,62.2z"/>
</svg>
