<?xml version="1.0" encoding="utf-8"?>
<!-- Generator: Adobe Illustrator 24.0.1, SVG Export Plug-In . SVG Version: 6.00 Build 0)  -->
<svg version="1.1" id="Layer_1" xmlns="http://www.w3.org/2000/svg" xmlns:xlink="http://www.w3.org/1999/xlink" x="0px" y="0px"
	 viewBox="0 0 72 72" style="enable-background:new 0 0 72 72;" xml:space="preserve">
<style type="text/css">
	.st0{fill-rule:evenodd;clip-rule:evenodd;fill:#FFFFFF;}
</style>
<path class="st0" d="M66.9,37L66.9,37c2.2,3,3.5,6.9,3.5,11c0,10.6-8.6,19.2-19.2,19.2c-4.5,0-20.5,0-25.6,0
	C11.5,67.2,0,55.7,0,41.6S11.5,16,25.6,16c3.2,0,6.2,0.6,9.1,1.6l0,0c2.6-7.5,9.8-12.8,18.1-12.8c1.3,0,2.4,0.2,3.5,0.3
	C56.2,6.1,56,7,56,8c0,7,5.8,12.8,12.8,12.8c1,0,1.9-0.2,2.9-0.3c0.2,1.1,0.3,2.4,0.3,3.5C72,29,70.1,33.6,66.9,37z M6.4,41.6
	c0,10.6,8.6,19.2,19.2,19.2c5.8,0,20.8,0,25.6,0C58.2,60.8,64,55,64,48s-5.8-12.8-12.8-12.8c-2.6,0-5,0.8-6.9,2.1
	c-2.1-8.5-9.6-14.9-18.7-14.9C15,22.4,6.4,31,6.4,41.6z M37.6,19L37.6,19L37.6,19z M49.9,11.5c-4.6,1.1-8.3,4.6-9.4,9.3l0,0
	c3,2.2,5.6,5.1,7.5,8.3c1.1-0.2,2.1-0.3,3.2-0.3c4.2,0,8,1.3,11.2,3.7l0,0c1.4-1.6,2.4-3.5,2.9-5.6C57.4,25.4,51.4,19.4,49.9,11.5z"
	/>
</svg>
