<?xml version="1.0" encoding="utf-8"?>
<!-- Generator: Adobe Illustrator 24.0.1, SVG Export Plug-In . SVG Version: 6.00 Build 0)  -->
<svg version="1.1" id="Layer_1" xmlns="http://www.w3.org/2000/svg" xmlns:xlink="http://www.w3.org/1999/xlink" x="0px" y="0px"
	 viewBox="0 0 72 72" style="enable-background:new 0 0 72 72;" xml:space="preserve">
<style type="text/css">
	.st0{fill-rule:evenodd;clip-rule:evenodd;fill:#FFFFFF;}
</style>
<path class="st0" d="M52.4,52.4c-0.5,0-1,0-1.8,0l5.9-7.2c5.2-1.8,9-6.7,9-12.4c0-7.2-5.9-13.1-13.1-13.1c-2.6,0-5.1,0.8-7,2.1
	c-2.1-8.7-9.8-15.2-19.1-15.2c-10.8,0-19.6,8.8-19.6,19.6c0,8.8,5.9,16.4,14.1,18.8l-2.1,6.2C7.7,47.9,0,38,0,26.2
	C0,11.8,11.8,0,26.2,0C36,0,44.5,5.4,49.1,13.4c1-0.2,2.1-0.3,3.3-0.3c10.8,0,19.6,8.8,19.6,19.6S63.2,52.4,52.4,52.4z M32.7,29.5
	h16.4l-9.8,16.4h11.5L29.5,72l5.9-19.6H24.5L32.7,29.5z"/>
</svg>
