<?xml version="1.0" encoding="utf-8"?>
<!-- Generator: Adobe Illustrator 24.0.1, SVG Export Plug-In . SVG Version: 6.00 Build 0)  -->
<svg version="1.1" id="Layer_1" xmlns="http://www.w3.org/2000/svg" xmlns:xlink="http://www.w3.org/1999/xlink" x="0px" y="0px"
	 viewBox="0 0 72 72" style="enable-background:new 0 0 72 72;" xml:space="preserve">
<style type="text/css">
	.st0{fill-rule:evenodd;clip-rule:evenodd;fill:#FFFFFF;}
</style>
<path class="st0" d="M69.3,38.7H64c-1.5,0-2.7-1.2-2.7-2.7s1.2-2.7,2.7-2.7h5.3c1.5,0,2.7,1.2,2.7,2.7S70.8,38.7,69.3,38.7z
	 M58.8,20.9c-1.1,1.1-2.7,1.1-3.7,0c-1.1-1.1-1.1-2.7,0-3.7l3.7-3.9c1.1-1.1,2.7-1.1,3.7,0s1.1,2.7,0,3.7L58.8,20.9z M54.9,41.7
	L54.9,41.7c2.3,2.8,3.7,6.4,3.7,10.3c0,8.8-7.2,16-16,16c-3.7,0-17.1,0-21.3,0C9.6,68,0,58.4,0,46.7s9.6-21.3,21.3-21.3
	c2.1,0,4.1,0.3,6,0.9c3-3.8,7.5-6.3,12.7-6.3c8.8,0,16,7.2,16,16C56,38,55.6,40,54.9,41.7z M5.3,46.7c0,8.8,7.2,16,16,16
	c4.8,0,17.3,0,21.3,0c5.9,0,10.7-4.8,10.7-10.7s-4.8-10.7-10.7-10.7c-2.1,0-4.1,0.7-5.7,1.7c-1.7-7.1-8-12.4-15.6-12.4
	C12.5,30.7,5.3,37.9,5.3,46.7z M40,25.3c-2.9,0-5.6,1.2-7.6,3.1c3.1,1.9,5.7,4.7,7.5,7.9c0.9-0.1,1.7-0.3,2.7-0.3
	c2.8,0,5.5,0.8,7.9,2l0,0c0.1-0.7,0.3-1.3,0.3-2C50.7,30.1,45.9,25.3,40,25.3z M40,14.7c-1.5,0-2.7-1.2-2.7-2.7V6.7
	C37.3,5.2,38.5,4,40,4s2.7,1.2,2.7,2.7V12C42.7,13.5,41.5,14.7,40,14.7z M21.2,20.9l-3.9-3.7c-1.1-1.1-1.1-2.7,0-3.7
	c1.1-1.1,2.7-1.1,3.7,0l3.7,3.7c1.1,1.1,1.1,2.7,0,3.7C23.9,22,22.1,22,21.2,20.9z"/>
</svg>
