<?xml version="1.0" encoding="utf-8"?>
<!-- Generator: Adobe Illustrator 24.0.1, SVG Export Plug-In . SVG Version: 6.00 Build 0)  -->
<svg version="1.1" id="Layer_1" xmlns="http://www.w3.org/2000/svg" xmlns:xlink="http://www.w3.org/1999/xlink" x="0px" y="0px"
	 viewBox="0 0 72 72" style="enable-background:new 0 0 72 72;" xml:space="preserve">
<style type="text/css">
	.st0{fill-rule:evenodd;clip-rule:evenodd;fill:#212121;}
</style>
<path class="st0" d="M26.2,62.2C11.8,62.2,0,50.4,0,36S11.8,9.8,26.2,9.8c9.8,0,18.3,5.4,22.9,13.4c1-0.2,2.1-0.3,3.3-0.3
	c10.8,0,19.6,8.8,19.6,19.6s-8.8,19.6-19.6,19.6C47.8,62.2,31.4,62.2,26.2,62.2z M52.4,55.6c7.2,0,13.1-5.9,13.1-13.1
	s-5.9-13.1-13.1-13.1c-2.6,0-5.1,0.8-7,2.1c-2.1-8.7-9.8-15.2-19.1-15.2C15.4,16.4,6.5,25.2,6.5,36s8.8,19.6,19.6,19.6
	C32.1,55.6,47.5,55.6,52.4,55.6z"/>
</svg>
