<?xml version="1.0" encoding="utf-8"?>
<!-- Generator: Adobe Illustrator 24.0.1, SVG Export Plug-In . SVG Version: 6.00 Build 0)  -->
<svg version="1.1" id="Layer_1" xmlns="http://www.w3.org/2000/svg" xmlns:xlink="http://www.w3.org/1999/xlink" x="0px" y="0px"
	 viewBox="0 0 72 72" style="enable-background:new 0 0 72 72;" xml:space="preserve">
<style type="text/css">
	.st0{fill-rule:evenodd;clip-rule:evenodd;fill:#212121;}
</style>
<path class="st0" d="M64.9,26.1l-6,3.3c0.6,2.1,0.9,4.2,0.9,6.3c0,2.1-0.3,4.5-0.9,6.3l6,3.3c3,1.8,3.9,5.4,2.1,8.1
	c-1.8,3-5.4,3.9-8.1,2.1l-6-3.3c-3,3-6.9,5.4-11.1,6.3V66c0,3.3-2.7,6-6,6s-6-2.7-6-6v-6.9c-4.2-0.9-7.8-3.3-10.8-6.3l-6,3.3
	C10.1,57.9,6.5,57,5,54c-1.8-3-0.9-6.6,2.1-8.1l6-3.3c-0.6-2.1-0.9-4.2-0.9-6.3s0.3-4.5,0.9-6.3l-6-3.9C4.1,24.6,3.2,21,5,18
	c1.5-3,5.1-3.9,8.1-2.1l6,3.3c3-3,6.9-5.4,11.1-6.3V6c0-3.3,2.7-6,6-6s6,2.7,6,6v6.9c4.2,1.2,8.1,3.3,11.1,6.3l6-3.3
	c2.7-1.8,6.3-0.9,7.8,2.1C68.8,21,67.9,24.6,64.9,26.1z M36.2,24c-6.6,0-12,5.4-12,12s5.4,12,12,12s12-5.4,12-12S42.8,24,36.2,24z"
	/>
</svg>
