<?xml version="1.0" encoding="utf-8"?>
<!-- Generator: Adobe Illustrator 24.0.1, SVG Export Plug-In . SVG Version: 6.00 Build 0)  -->
<svg version="1.1" id="Layer_1" xmlns="http://www.w3.org/2000/svg" xmlns:xlink="http://www.w3.org/1999/xlink" x="0px" y="0px"
	 viewBox="0 0 72 72" style="enable-background:new 0 0 72 72;" xml:space="preserve">
<style type="text/css">
	.st0{fill-rule:evenodd;clip-rule:evenodd;fill:#FFFFFF;}
</style>
<path class="st0" d="M69,39h-6c-1.6,0-3-1.3-3-3s1.4-3,3-3h6c1.6,0,3,1.3,3,3S70.6,39,69,39z M57.1,19c-1.2,1.2-3,1.2-4.2,0
	s-1.2-3,0-4.2l4.2-4.3c1.2-1.2,3-1.2,4.2,0s1.2,3,0,4.2L57.1,19z M36,54c-9.9,0-18-8.1-18-18s8.1-18,18-18s18,8.1,18,18
	S45.9,54,36,54z M36,24c-6.6,0-12,5.4-12,12s5.4,12,12,12s12-5.4,12-12S42.6,24,36,24z M36,12c-1.7,0-3-1.4-3-3V3c0-1.7,1.3-3,3-3
	s3,1.3,3,3v6C39,10.6,37.7,12,36,12z M14.8,19l-4.3-4.2c-1.2-1.2-1.2-3.1,0-4.3s3-1.2,4.2,0l4.2,4.2c1.2,1.2,1.2,3,0,4.2
	C17.7,20.1,15.9,20.3,14.8,19z M12,36c0,1.7-1.4,3-3,3H3c-1.7,0-3-1.3-3-3s1.3-3,3-3h6C10.6,33,12,34.3,12,36z M14.8,52.9
	c1.2-1.2,3-1.2,4.2,0s1.2,3,0,4.2l-4.2,4.4c-1.2,1.2-3,1.2-4.2,0s-1.2-3,0-4.2L14.8,52.9z M36,60c1.7,0,3,1.4,3,3v6c0,1.6-1.3,3-3,3
	s-3-1.4-3-3v-6C33,61.4,34.3,60,36,60z M57.1,52.9l4.2,4.2c1.2,1.2,1.2,3,0,4.2s-3,1.2-4.2,0l-4.2-4.2c-1.2-1.2-1.2-3,0-4.2
	C54.1,51.8,56.1,51.8,57.1,52.9z"/>
</svg>
