<?xml version="1.0" encoding="utf-8"?>
<!-- Generator: Adobe Illustrator 24.0.1, SVG Export Plug-In . SVG Version: 6.00 Build 0)  -->
<svg version="1.1" id="Layer_1" xmlns="http://www.w3.org/2000/svg" xmlns:xlink="http://www.w3.org/1999/xlink" x="0px" y="0px"
	 viewBox="0 0 72 72" style="enable-background:new 0 0 72 72;" xml:space="preserve">
<style type="text/css">
	.st0{fill-rule:evenodd;clip-rule:evenodd;fill:#FFFFFF;}
</style>
<path class="st0" d="M68.6,12H3.4C1.5,12,0,10.5,0,8.6s1.5-3.4,3.4-3.4h65.1c1.9,0,3.4,1.5,3.4,3.4S70.5,12,68.6,12z M6.9,18.9h51.4
	c1.9,0,3.4,1.5,3.4,3.4s-1.5,3.4-3.4,3.4H6.9c-1.9,0-3.4-1.5-3.4-3.4C3.4,20.4,5,18.9,6.9,18.9z M27.4,32.6h37.7
	c1.9,0,3.4,1.5,3.4,3.4s-1.5,3.4-3.4,3.4H27.4c-1.9,0-3.4-1.5-3.4-3.4S25.5,32.6,27.4,32.6z M30.9,60h10.3c1.9,0,3.4,1.5,3.4,3.4
	s-1.5,3.4-3.4,3.4H30.9c-1.9,0-3.4-1.5-3.4-3.4C27.4,61.5,29,60,30.9,60z M32.6,49.7c0-1.9,1.5-3.4,3.4-3.4h24
	c1.9,0,3.4,1.5,3.4,3.4s-1.5,3.4-3.4,3.4H36C34.1,53.1,32.6,51.6,32.6,49.7z"/>
</svg>
