<svg id="Layer_1" data-name="Layer 1" xmlns="http://www.w3.org/2000/svg" viewBox="0 0 72 72"><defs><style>.cls-1{fill:#fff;fill-rule:evenodd;}</style></defs><title>Windw</title><path class="cls-1" d="M62.2,39.3H57.3a3.3,3.3,0,0,1,0-6.6h4.9a3.3,3.3,0,1,0,0-6.6,3.3,3.3,0,0,1,0-6.6h.7a9.84,9.84,0,0,1,9.2,9.8A10,10,0,0,1,62.2,39.3ZM45.8,32.7H9.8a3.3,3.3,0,0,0,0,6.6h36a9.82,9.82,0,0,1,9.8,9.8,10,10,0,0,1-9.2,9.8h-.7a3.3,3.3,0,0,1,0-6.6,3.3,3.3,0,0,0,0-6.6H9.8A9.67,9.67,0,0,1,0,36a10,10,0,0,1,9.2-9.8H46a3.3,3.3,0,0,0,0-6.6A3.3,3.3,0,1,1,46,13h.7a10,10,0,0,1,9.2,9.8A10.3,10.3,0,0,1,45.8,32.7Z"/></svg>