<?xml version="1.0" encoding="utf-8"?>
<!-- Generator: Adobe Illustrator 24.0.1, SVG Export Plug-In . SVG Version: 6.00 Build 0)  -->
<svg version="1.1" id="Layer_1" xmlns="http://www.w3.org/2000/svg" xmlns:xlink="http://www.w3.org/1999/xlink" x="0px" y="0px"
	 viewBox="0 0 72 72" style="enable-background:new 0 0 72 72;" xml:space="preserve">
<style type="text/css">
	.st0{fill-rule:evenodd;clip-rule:evenodd;fill:#212121;}
</style>
<path class="st0" d="M62.2,39.3L62.2,39.3h-4.9c-1.8,0-3.3-1.5-3.3-3.3s1.5-3.3,3.3-3.3h4.9c1.8,0,3.3-1.5,3.3-3.3s-1.5-3.3-3.3-3.3
	s-3.3-1.5-3.3-3.3s1.5-3.3,3.3-3.3c0.2,0,0.5,0,0.7,0c5.1,0.3,9.2,4.6,9.2,9.8C72,34.9,67.6,39.3,62.2,39.3z M45.8,32.7h-3.3H31.1
	H9.8c-1.8,0-3.3,1.5-3.3,3.3s1.5,3.3,3.3,3.3h3.3h6.5h4.9H31h5h6.5h3.3c5.4,0,9.8,4.4,9.8,9.8c0,5.2-4.1,9.3-9.2,9.8
	c-0.2,0-0.5,0-0.7,0c-1.8,0-3.3-1.5-3.3-3.3s1.5-3.3,3.3-3.3S49,50.8,49,49s-1.5-3.3-3.3-3.3h-3.3H36h-4.9h-6.5h-4.9h-6.5H9.8
	C4.4,45.8,0,41.4,0,36c0-5.2,4.1-9.3,9.2-9.8c0.2,0,0.5,0,0.7,0l0,0h21.3h11.5H46c1.8,0,3.3-1.5,3.3-3.3s-1.5-3.3-3.3-3.3
	s-3.3-1.5-3.3-3.3S44.2,13,46,13c0.2,0,0.5,0,0.7,0c5.1,0.5,9.2,4.6,9.2,9.8C55.6,28.3,51.2,32.7,45.8,32.7z"/>
</svg>
